PathFileType        4      (X/Y/Z)      C:\Users\cpontonn\Documents\TRAVAIL - COURS\DIGISPORT\Partage Nico\Partage Nico DIGISPORT\TP OPENSIM - eleves - work\DATA\transformed_Marche0007.trc         
DataRate	CameraRate	NumFrames	NumMarkers	Units	OrigDataRate	OrigDataStartFrame	OrigNumFrames
100.0	100.0	6	38	mm	100.0	363	414
Frame#	Time	LFHD			LBHD			RFHD			RBHD			C7			T10			CLAV			STRN			LSHO			LRAD			LHUM			LWRB			LWRA			LCAR			RSHO			RRAD			RHUM			RWRB			RWRA			RCAR			LFWT			LBWT			RFWT			RBWT			LKNE			LKNI			LANE			LHEE			LANI			LTAR			LTOE			RKNE			RKNI			RANE			RHEE			RANI			RTAR			RTOE			
		X1	Y1	Z1	X2	Y2	Z2	X3	Y3	Z3	X4	Y4	Z4	X5	Y5	Z5	X6	Y6	Z6	X7	Y7	Z7	X8	Y8	Z8	X9	Y9	Z9	X10	Y10	Z10	X11	Y11	Z11	X12	Y12	Z12	X13	Y13	Z13	X14	Y14	Z14	X15	Y15	Z15	X16	Y16	Z16	X17	Y17	Z17	X18	Y18	Z18	X19	Y19	Z19	X20	Y20	Z20	X21	Y21	Z21	X22	Y22	Z22	X23	Y23	Z23	X24	Y24	Z24	X25	Y25	Z25	X26	Y26	Z26	X27	Y27	Z27	X28	Y28	Z28	X29	Y29	Z29	X30	Y30	Z30	X31	Y31	Z31	X32	Y32	Z32	X33	Y33	Z33	X34	Y34	Z34	X35	Y35	Z35	X36	Y36	Z36	X37	Y37	Z37	X38	Y38	Z38	
363	3.62	2266.20605	1729.73132	295.9612700000004	2118.96313	1731.7489	291.4095500000004	2265.17261	1711.39404	431.0722400000004	2101.79028	1710.55774	413.7132600000004	2026.87573	1604.29053	356.88834000000037	1929.20715	1384.89966	349.3314500000003	2142.88208	1510.08667	350.6467000000004	2165.31348	1332.47754	341.6636400000003	2070.17188	1570.1427	150.68260000000035	1974.14294	1214.13977	87.77603000000032	1950.98621	1222.71545	150.00522000000032	1995.08655	962.25073	53.1790400000003	2013.28528	950.78326	128.2427200000003	2012.57056	871.40204	75.4230400000003	2076.94263	1542.43494	544.4149800000004	1979.86316	1178.7854	603.9961500000003	1953.33643	1190.6781	550.9785800000003	2047.97095	926.46307	619.6812700000003	2095.67505	929.04657	566.2031300000003	2090.04492	850.47803	620.5384500000002	2181.64795	1059.96301	236.53905000000032	1994.14197	1087.1626	315.7282400000003	2199.30688	1064.44934	425.69644000000034	1999.32556	1088.00916	396.7096300000003	2108.58716	546.81879	156.47884000000028	2118.00781	501.72934	267.39246000000037	1761.22363	269.47281	213.53793000000024	1672.82947	306.54022	291.75909000000024	1789.26111	256.28687	299.20184000000023	1752.72913	93.75844999999998	187.25365000000022	1797.18958	44.204469999999986	261.91687000000024	2233.4021	549.48859	478.70932000000033	2232.90479	511.29398	382.53888000000035	2174.52197	89.90696999999997	438.82095000000027	2089.06348	31.004919999999977	376.9989000000003	2183.38599	119.49865999999997	349.02216000000027	2329.14087	28.46058999999997	450.3886400000003	2377.20898	26.03506999999998	358.2699900000003	
364	3.63	2279.13843	1729.5083	296.6983000000004	2130.19238	1733.7948	291.6801100000004	2276.76221	1714.4834	431.0817300000004	2113.33301	1712.93188	414.0312200000004	2038.59949	1606.54504	357.64816000000036	1940.91638	1387.23914	349.9699700000003	2154.58325	1512.60596	351.03036000000037	2177.03662	1334.83374	341.99738000000036	2081.74536	1573.22363	150.63008000000033	1981.78674	1217.75391	89.13390000000031	1958.46106	1227.02625	150.93620000000033	2000.06433	965.23572	56.4056300000003	2017.08777	954.18817	131.78047000000032	2015.29382	874.17676	79.8730300000003	2088.92407	1544.64832	544.9851700000004	1994.43652	1180.23047	606.1046100000003	1967.48047	1191.65063	553.1605200000004	2069.36938	929.68805	620.7419400000003	2116.75366	933.69122	566.9835800000003	2113.39868	854.99451	621.3996600000003	2193.89282	1062.79004	237.4955900000003	2006.07507	1089.86255	315.5114100000003	2210.77588	1066.51025	426.59857000000034	2011.34399	1090.65259	396.59558000000027	2131.17554	549.74896	156.7713500000003	2141.57422	504.9021	267.80957000000035	1788.52173	267.23999	213.29047000000025	1696.09485	299.51212	289.89569000000023	1815.60718	255.48546999999996	298.9070700000002	1789.84485	92.16789999999999	185.39566000000022	1835.10913	44.41165999999998	260.9000200000002	2233.65405	549.94501	481.1774000000003	2236.42114	511.19254	382.83029000000033	2174.8877	90.31853999999997	438.6937600000003	2089.23706	31.49173999999998	376.9977400000003	2182.56372	120.00026999999997	349.8913000000003	2329.21021	28.29366999999997	450.4100000000003	2378.43359	25.542179999999977	357.0285000000003	
365	3.64	2290.27588	1731.95752	296.6285100000004	2141.28809	1735.64221	291.8925200000004	2288.21143	1717.42871	431.0970800000004	2124.76709	1715.18237	414.3025500000004	2050.16138	1608.573	358.3248900000003	1952.45337	1389.37366	350.5470900000003	2166.11401	1514.95178	351.4191900000004	2188.56812	1337.02783	342.29565000000036	2093.14624	1575.79041	151.18686000000034	1988.77808	1221.32642	90.1675100000003	1965.98303	1231.33411	151.76909000000032	2005.15198	968.22278	59.681250000000304	2021.43127	957.49915	135.3344100000003	2018.60901	877.05902	84.0524800000003	2100.66968	1546.65271	545.5242300000003	2008.74573	1181.41614	608.1624100000004	1981.27295	1192.44141	555.3217800000003	2089.97144	932.67065	621.7255900000004	2137.36792	938.27307	567.5130600000003	2136.64648	859.68323	622.1163900000003	2205.90991	1065.38977	238.37169000000034	2017.86731	1092.37097	315.52322000000026	2222.17798	1068.46484	427.46964000000037	2022.87048	1092.83215	396.61197000000027	2153.39233	552.57019	157.21593000000027	2164.50415	508.25757	268.46298000000036	1816.3219	263.96085	212.94464000000025	1720.11536	290.78763	287.86295000000024	1842.17017	253.55770999999996	298.7113000000002	1828.24988	89.90886999999998	183.80869000000024	1874.08948	44.12301999999998	260.3647200000002	2237.09277	549.88342	481.29932000000036	2239.36353	511.0712	382.7006800000003	2175.33301	90.70576999999997	438.46826000000027	2089.46899	31.951509999999978	376.8999000000003	2184.43457	120.12339999999998	348.7570200000003	2329.29004	28.21302999999997	450.4402200000003	2378.59277	25.27867999999998	357.0939300000003	
366	3.65	2301.35474	1734.26929	296.5698200000004	2152.34766	1737.29492	291.9910300000004	2299.50391	1720.17358	431.0981800000004	2135.99219	1717.19043	414.4581000000004	2061.59497	1610.43298	359.02200000000033	1963.92371	1391.40442	351.0406200000003	2177.6228	1517.14282	351.8230900000004	2199.87183	1339.08228	342.60696000000036	2104.49609	1578.20935	151.79073000000034	1997.1731	1224.6842	91.62129000000031	1973.58643	1235.63086	152.42198000000033	2010.38525	971.13556	62.9771800000003	2026.25354	960.69977	138.81538000000032	2022.5752	879.94202	88.0136400000003	2112.16113	1548.46729	546.0283200000003	2022.69336	1182.40259	610.1845100000004	1994.85901	1192.95276	557.3023700000003	2111.60181	936.30573	622.5444900000003	2157.65186	942.91241	567.8956900000003	2159.69482	864.47345	622.6834100000002	2217.79321	1067.8656	239.23984000000033	2029.40906	1094.53638	315.50766000000027	2233.43579	1070.29382	428.34543000000036	2034.32678	1094.81653	396.6743500000003	2175.13989	555.34436	157.94867000000028	2186.41699	510.99835	270.18115000000034	1843.50867	259.2103	213.45047000000025	1745.30688	280.80176	285.7287300000002	1869.4574	250.29299999999998	298.5506600000002	1866.15356	87.08176999999999	183.35115000000022	1913.67468	43.46501999999999	260.44949000000025	2240.35205	549.76221	481.28937000000036	2242.41772	511.36694	382.0562700000003	2175.62769	91.07646999999997	438.2185400000003	2089.62964	32.29336999999998	376.7678800000003	2184.90405	120.36215999999997	348.4571500000003	2329.31714	28.12799999999997	450.42355000000026	2378.73535	25.01365999999998	357.12073000000026	
367	3.66	2312.32275	1736.46643	296.5859700000004	2163.39258	1738.85071	291.9802600000004	2310.62646	1722.80896	431.1399800000004	2147.18018	1719.07727	414.5858200000004	2072.95972	1612.16687	359.58533000000034	1975.32312	1393.23523	351.47760000000034	2189.03174	1519.13855	352.2292800000004	2210.92334	1340.99634	342.93677000000037	2115.63916	1580.10889	153.00926000000035	2005.47559	1227.98865	92.77200000000032	1981.30005	1239.79175	152.89546000000036	2015.85559	973.91644	66.2247100000003	2031.54565	963.79816	142.21126000000032	2027.18726	882.75885	91.76923000000029	2123.45923	1550.12756	546.5109300000004	2036.51831	1183.28906	612.0524300000003	2008.29773	1193.35547	559.1544800000004	2131.76953	939.43091	623.2747800000003	2177.57886	947.57697	568.1467300000004	2182.35303	869.38641	623.0555400000002	2229.52734	1070.1283	240.10692000000034	2040.85693	1096.43506	315.3884300000003	2244.56152	1071.96118	429.19333000000034	2045.4071	1096.52673	396.4902000000003	2196.59814	558.01825	158.72429000000028	2208.51465	514.09985	271.0190100000003	1873.54285	253.21277	212.36469000000025	1771.58215	269.31018	284.08969000000025	1898.18469	245.17248999999998	299.08908000000025	1904.99817	83.65899999999999	182.34795000000022	1953.82922	42.320559999999986	259.9277300000002	2243.46899	549.8045	481.0268900000003	2245.35254	511.22299	381.1528600000003	2175.94678	91.49132999999998	437.9026500000003	2089.76953	32.55079999999998	376.5505400000003	2185.78662	120.74316999999999	347.7083700000003	2329.3562	28.103219999999972	450.39435000000026	2378.85181	24.82936999999998	357.1531100000003	
368	3.67	2323.2063	1738.61011	296.6202400000004	2174.32397	1740.22388	291.9411900000004	2321.56494	1725.3241	431.1926300000004	2158.13501	1720.73633	414.6041600000004	2084.27881	1613.78113	360.04477000000037	1986.91382	1394.99451	351.8418900000003	2200.34692	1520.9386	352.6125200000004	2221.86157	1342.73389	343.29077000000035	2126.99292	1582.12512	153.52119000000033	2013.41821	1230.92969	93.82517000000031	1989.10437	1243.70471	153.36073000000033	2021.65051	976.51959	69.3531700000003	2037.31445	966.77362	145.43913000000032	2032.50818	885.47144	95.39964000000032	2134.52539	1551.62268	546.9036300000004	2050.01953	1183.97607	613.7956500000004	2021.5603	1193.53516	560.8979500000004	2152.61938	943.07819	623.7200300000003	2197.14209	952.21216	568.3082900000004	2204.59888	874.33899	623.3021900000002	2241.17847	1072.15796	240.96198000000035	2053.20337	1098.18762	315.32498000000027	2255.42725	1073.46667	430.06009000000034	2056.4729	1098.02405	396.20624000000026	2217.65723	560.77319	159.6781000000003	2229.16211	517.6792	272.27634000000035	1902.86084	246.38113	212.21945000000025	1799.09814	256.76929	283.08026000000024	1927.28052	239.27120999999997	298.58154000000025	1943.98572	79.83861999999999	181.19281000000024	1994.60925	40.887999999999984	258.87628000000024	2246.37451	549.87518	480.79349000000036	2246.56396	511.03381	381.89111000000037	2176.18823	91.82154999999997	437.60049000000026	2088.57129	33.10936999999998	377.5083300000002	2185.94141	120.73610999999998	347.4371300000003	2329.3374	28.109679999999972	450.3365200000003	2378.93042	24.65657999999998	357.1493200000003	
